<?xml version="1.0" encoding="utf-8"?>
<svg viewBox="0 0 222 222" xmlns="http://www.w3.org/2000/svg">
  <defs>
    <clipPath id="30c99aa9d3">
      <path d="M 110 75.648438 L 113 75.648438 L 113 83 L 110 83 Z M 110 75.648438 " clip-rule="nonzero"/>
    </clipPath>
  </defs>
  <g clip-path="url(#30c99aa9d3)" transform="matrix(3.119381, 0, 0, 3.119381, -234.185047, -235.976246)"/>
  <path fill="#6ec63b" d="M 111.006 195.813 C 64.228 195.813 26.187 157.785 26.187 111.006 C 26.187 64.228 64.228 26.184 111.006 26.184 C 157.772 26.184 195.813 64.228 195.813 111.006 C 195.813 157.785 157.772 195.813 111.006 195.813 Z M 111.006 30.682 C 66.689 30.682 30.669 66.689 30.669 111.006 C 30.669 155.311 66.689 191.331 111.006 191.331 C 155.311 191.331 191.331 155.311 191.331 111.006 C 191.331 66.689 155.311 30.682 111.006 30.682 Z M 111.006 30.682" fill-opacity="1" fill-rule="nonzero"/>
  <path fill="#6ec63b" d="M 111.006 195.813 C 64.228 195.813 26.187 157.785 26.187 111.006 C 26.187 64.228 64.228 26.184 111.006 26.184 C 157.772 26.184 195.813 64.228 195.813 111.006 C 195.813 157.785 157.772 195.813 111.006 195.813 Z M 111.006 30.682 C 66.689 30.682 30.669 66.689 30.669 111.006 C 30.669 155.311 66.689 191.331 111.006 191.331 C 155.311 191.331 191.331 155.311 191.331 111.006 C 191.331 66.689 155.311 30.682 111.006 30.682 Z M 111.006 30.682" fill-opacity="1" fill-rule="nonzero"/>
</svg>